# xmcd
# 
# Track frame offsets:
#   300
#   21042
#   37616
#   54977
#   69656
#   85192
#   103570
#   122670
# 
# Disc length: 1898 seconds
# 
# Revision: 0
# Processed by: cddbd v1.5.2PL0 Copyright (c) Steve Scherf et al.
# Submitted via: Synapstar 1.0 
# 
DISCID=59076608
DTITLE=Various Artist - Woofers Country Karaoke Mix 1
DYEAR=1900
DGENRE=Country
TTITLE0=Faith Hill and Tim McGraw - Like We Never Loved At All (Duet)
TTITLE1=Zac Brown Band - Whatever It Is
TTITLE2=Neal McCoy - Billy's Got His Beer Goggles On
TTITLE3=George Strait - Love Without End, Amen
TTITLE4=George Strait - River Of Love
TTITLE5=Blake Shelton - Austin
TTITLE6=Robert Earl Keen - Walkin' Cane
TTITLE7=Jamey Johnson - In Color
EXTD=MediaType: Karaoke CD+G Producer: Unknown
EXTT0=
EXTT1=
EXTT2=
EXTT3=
EXTT4=
EXTT5=
EXTT6=
EXTT7=
PLAYORDER=
